<?xml version="1.0" encoding="UTF-8" standalone="no"?>
<!-- Created with Inkscape (http://www.inkscape.org/) -->

<svg
   width="92.931709mm"
   height="86.519287mm"
   viewBox="0 0 92.931711 86.519287"
   version="1.1"
   id="svg1"
   xml:space="preserve"
   inkscape:export-filename="bitmap.png"
   inkscape:export-xdpi="182.54291"
   inkscape:export-ydpi="182.54291"
   inkscape:version="1.4.2 (f4327f4, 2025-05-13)"
   sodipodi:docname="dark-logo-svg.svg"
   xmlns:inkscape="http://www.inkscape.org/namespaces/inkscape"
   xmlns:sodipodi="http://sodipodi.sourceforge.net/DTD/sodipodi-0.dtd"
   xmlns="http://www.w3.org/2000/svg"
   xmlns:svg="http://www.w3.org/2000/svg"><sodipodi:namedview
     id="namedview1"
     pagecolor="#ffffff"
     bordercolor="#000000"
     borderopacity="0.25"
     inkscape:showpageshadow="2"
     inkscape:pageopacity="0.0"
     inkscape:pagecheckerboard="0"
     inkscape:deskcolor="#d1d1d1"
     inkscape:document-units="mm"
     inkscape:export-bgcolor="#ffffff00"
     inkscape:zoom="1"
     inkscape:cx="18.5"
     inkscape:cy="387.5"
     inkscape:window-width="2560"
     inkscape:window-height="1600"
     inkscape:window-x="0"
     inkscape:window-y="0"
     inkscape:window-maximized="1"
     inkscape:current-layer="svg1" /><defs
     id="defs1" /><g
     id="g71"
     transform="matrix(1.2103796,0,0,1.1149123,138.36732,41.652416)"><path
       style="fill:#faceb7;stroke-width:1.00081"
       d="m -80.785128,40.242123 c 1.34e-4,10e-7 -1.31e-4,4.19e-4 0,3.9e-4 z m -4.444521,-0.86858 c -0.971666,0 -4.782626,-1.26729 -7.22999,-2.40425 -4.803139,-2.23137 -9.522131,-7.067087 -13.384881,-10.55601 -5.8752,-5.306634 3.2844,-6.959934 5.15688,-9.899661 1.848969,-2.902804 1.975785,-2.477044 4.002561,-7.2935803 1.722616,-4.0937114 2.884064,-8.098523 3.309119,-13.814463 0.448713,-6.0340597 1.841889,-9.6238747 5.240395,-12.9919947 3.285473,-3.2561 6.797456,-4.756078 11.666942,-4.995098 5.748392,-0.28215 10.430121,1.368148 13.896185,4.858558 3.058358,3.07983 4.231514,6.311229 4.239386,10.7562189 0.01042,5.90621 -2.570251,9.85187 -6.72141,10.27638 -2.468167,0.25241 -4.669423,-0.77316 -5.626786,-2.62152995 l -0.407617,-0.78697 -0.914323,1.06645 c -2.604907,3.03833995 -8.377448,2.67442995 -10.817099,-0.68194 -1.423814,-1.95882995 -1.823869,-3.42936005 -1.696033,-6.23437005 0.01079,-2.0219172 0.231711,-2.8048106 0.83297,-3.9966306 0.962772,-1.9084303 1.874062,-2.8347693 3.490867,-3.5978793 2.5197,-1.18927 6.991446,-0.620055 8.012712,1.012625 0.400525,0.6403 0.571849,0.373691 0.575853,-0.0056 0.01138,-1.077566 1.461516,-1.831784 3.01342,-1.114771 0.497394,0.229807 0.455984,0.726447 0.455984,6.0964069 0,6.31852 0.266287,7.06057431 1.678081,7.64441431 1.415221,0.58526 2.699891,-0.16966819 3.641237,-2.11473811 1.683082,-3.4776801 1.394119,-8.7107061 -0.774736,-11.8579561 -2.525319,-3.66452 -6.828923,-5.74573 -11.881194,-5.74573 -6.678881,0 -11.774471,3.6539 -13.73455,9.8486399 -2.593609,8.1970101 2.205283,16.1779597 10.714984,17.9787394 2.437337,0.51578 4.970593,0.3652996 7.954909,-0.1421715 l 2.582296,-0.5557934 0.496118,0.6666682 c 0.441515,0.5932965 0.504228,1.239067 0.180076,1.743177 -0.107083,0.1665404 -1.141259,0.6196704 -2.298173,1.0069604 -5.490266,1.83791 -9.871926,5.79981 -12.743363,11.52253 -2.71838,5.4177 -3.556622,10.699155 -2.545743,15.136465 -0.142047,0.956831 1.397662,1.820178 0.906347,1.930554 -0.246467,0.009 -1.413465,-0.04763 -1.50355,-0.193151 0,0 0.580387,0.05949 0.232126,0.05949 z m 10.583438,-39.96839034 c 3.596912,-1.63544006 3.576056,-8.70333976 -0.02644,-10.20612966 -3.236385,-1.35007 -6.362041,1.2302144 -6.281752,5.3208899 0.08087,4.120437 3.035547,6.37324184 6.30819,4.88523976 z M -114.31729,1.2073929 -86.558005,16.177116 Z"
       id="path2"
       inkscape:export-filename="path2.png"
       inkscape:export-xdpi="96"
       inkscape:export-ydpi="96"
       sodipodi:nodetypes="cccssssssssscsscsscssssssssssssscsssssccssssssscsc" /><g
       id="g64"><path
         style="fill:#1c1716"
         d="m -81.152009,40.041095 c -3.32238,-0.39872 -3.36032,-0.42417 -3.85141,-2.58333 -1.00879,-4.43534 -0.0988,-9.69436 2.61474,-15.11116 1.39924,-2.79316 2.93616,-4.86591 5.20856,-7.02447 2.24956,-2.13686 4.51291,-3.49171 7.51427,-4.49806 1.15505,-0.38729 2.18756,-0.8404204 2.29447,-1.0069604 0.32363,-0.50411 0.22776,-1.1398 -0.26053,-1.72756 l -0.46302,-0.5573498 -2.51354,0.5245598 c -2.95729,0.61716 -5.54098,0.66576 -7.97439,0.14998 -8.49599,-1.8007798 -13.271,-9.8832398 -10.68157,-18.0802498 1.95692,-6.1947398 7.0443,-9.8486398 13.71242,-9.8486398 5.04413,0 9.3408,2.08121 11.86205,5.74573 1.0005,1.45417 1.45227,2.76322 1.78889,5.1833998 0.73342,5.27312 -1.8409,10.11491 -4.73959,8.91423005 -1.40952,-0.58384 -1.58656,-1.45083005 -1.58656,-7.76935005 0,-5.3699598 -0.0301,-5.7214898 -0.51177,-5.9792798 -1.2668,-0.67797 -2.92782,-0.0721 -2.92782,1.06792 0,0.64781 -0.31231,0.65368 -0.71219,0.0134 -1.01962,-1.63268 -5.37112,-2.17847 -7.88676,-0.9892 -1.6142,0.76311 -2.51191,1.69433 -3.47313,3.6027598 -0.60029,1.19182 -0.753,1.89593 -0.84374,3.89024 -0.12763,2.80501 0.27178,4.27554 1.6933,6.23437005 2.43572,3.35636995 8.19896,3.72027995 10.79967,0.68194 l 0.91285,-1.06645 0.40696,0.78697 c 0.95582,1.84836995 3.15353,2.87393995 5.61772,2.62152995 4.14447,-0.42451 6.72103,-4.37017 6.71058,-10.27638 -0.008,-4.4449898 -1.30024,-7.6217298 -4.35367,-10.7015598 -3.46048,-3.49041 -8.01355,-5.07824 -13.75268,-4.79609 -4.86164,0.23902 -8.25663,1.69641 -11.5368,4.95251 -3.39303,3.36812 -4.83071,6.8873 -5.27869,12.9213598 -0.6636,8.93815 -3.11291,15.6282602 -8.287381,22.6364202 -1.6372,2.21737 -5.24288,5.9818 -5.72955,5.9818 -0.65519,0 -3.4539,-5.30132 -4.86735,-9.21973 -1.39482,-3.86677 -1.8553,-6.8747102 -1.86945,-12.2115202 -0.88367,-45.0653568 64.35772,-57.9227138 76.083611,-6.91531 0.599701,2.6086866 0.53459,3.75953005 0.41766,7.84135 -0.14433,5.0388498 -0.41658,6.7224602 -1.76354,10.9058702 -3.65763,11.35995 -13.01068,20.55924 -24.54679,24.14323 -1.42571,0.44294 -3.60177,0.98466 -4.83569,1.20382 -2.86626,0.5091 -9.53139,0.70237 -12.39014,0.35928 z m 2.31444,-40.77977015 c -2.1532,-1.42671005 -2.84704,-5.12693005 -1.48384,-7.91321005 1.94735,-3.9802298 7.07248,-3.2886298 8.12442,1.09633 0.67591,2.81753 -0.45005,6.01926 -2.45068,6.96862005 -1.34083,0.63627 -3.09661,0.57268 -4.1899,-0.15174 z"
         id="path1"
         sodipodi:nodetypes="ssssssscsssssssssscssssscsscssssssscssssssssssss" /></g></g><g
     id="g66"
     transform="matrix(1.3338504,0,0,1.1710777,113.0129,48.395156)"
     inkscape:export-filename="g66.png"
     inkscape:export-xdpi="234.93028"
     inkscape:export-ydpi="234.93028"><g
       id="g68"
       transform="matrix(0.96071758,0,0,1,-6.4761819,-1.1296575)"><g
         id="g70"
         transform="translate(8.2588507,-2.9371132)"><g
           id="g69"><path
             style="fill:#faceb7"
             d="m -173.80908,35.018591 c 9e-5,2e-6 -9e-5,3.15e-4 0,3e-4 z m -11.71255,-0.602 c -0.0899,-0.14552 -0.448,-0.26458 -0.7957,-0.26458 -0.9701,0 -4.77492,-1.26729 -7.21834,-2.40425 -4.7954,-2.23137 -10.17757,-6.48288 -13.36331,-10.55601 -0.74167,-0.94826 -1.60252,-2.153754 -1.86497,-2.414084 -0.5764,-0.57174 -0.48007,-1.37103 0.018,-0.315888 0.28753,0.609183 0.63467,0.343672 2.89381,-1.922388 3.1048,-3.11428 6.19466,-7.7837897 8.26744,-12.49403 1.88267,-4.27822002 2.77445,-8.14147 3.19882,-13.85741 0.44799,-6.03406 1.88566,-9.553238 5.27869,-12.921358 1.48827,-1.477341 3.0019,-2.640841 4.6637,-3.431831 2.00085,-0.952374 4.21672,-1.408954 6.87658,-1.565021 5.70506,-0.334745 10.46654,1.354909 13.81522,4.79609 2.94055,3.021776 4.46392,6.296879 4.36756,10.721713 0.0104,5.9062102 -2.64601,9.876057 -6.79048,10.300567 -2.46419,0.25241 -4.6619,-0.77316 -5.61772,-2.6215301 l -0.39306,-0.7547209 -0.90243,1.0825745 c -2.56582,3.0780217 -8.38827,2.6260565 -10.82399,-0.7303136 -1.42152,-1.9588299 -1.82093,-3.4293599 -1.6933,-6.2343699 0.0907,-1.99431 0.24345,-2.69842 0.84374,-3.89024 0.96122,-1.90843 1.85893,-2.839647 3.47313,-3.60276 0.91143,-0.430879 2.07079,-0.698503 3.21842,-0.704702 2.01995,-0.01091 4.08414,0.592284 4.73435,1.633435 0.39987,0.640305 0.64618,0.694897 0.64618,0.04707 0,-1.14003 1.73397,-1.794264 3.00077,-1.116294 0.48168,0.25779 0.51525,0.681881 0.51525,6.051841 0,6.3185198 0.26597,7.1945791 1.55876,7.6967893 1.36657,0.5308682 2.83262,-0.2149964 3.77245,-2.1600663 1.68037,-3.47768 1.29498,-8.74194 -0.87038,-11.88919 -2.52125,-3.664518 -6.73454,-5.725572 -11.77867,-5.725572 -6.66812,0 -11.60612,3.815145 -13.71242,9.848638 -0.87132,2.495892 -0.79667,4.934516 -0.31569,7.2557885 1.07837,5.2042756 5.24346,9.4178906 10.97294,10.7478696 2.42561,0.5630562 4.93106,0.4440266 7.90143,-0.1298243 l 2.63861,-0.52456 0.45954,0.5412255 c 0.49379,0.5815478 0.55985,1.3040726 0.23622,1.8081826 -0.10691,0.1665403 -1.16632,0.6101625 -2.31889,1.0072468 -5.46432,1.882559 -9.94287,5.7227633 -12.64914,11.4854743 -2.5905,5.516188 -3.52927,10.673701 -2.67327,15.084535 0.11895,0.612931 2.97243,2.532289 0.4302,2.121936 z m 9.85143,-40.1314601 c 3.5635,-1.6909899 3.48955,-8.8048499 -0.10714,-10.3076399 -3.23117,-1.35007 -6.27163,1.22948 -6.27163,5.32089 0,4.10482 3.1114,6.53722 6.37877,4.9867499 z M -209.73659,17.15026 c 90.148,-82.905437 90.148,-82.905437 0,0 z"
             id="path2-7"
             sodipodi:nodetypes="ccccsssssssssssscsscsscssssssssssssssscsssssccssssss" /></g><path
           style="fill:#2c5aa0"
           d="m -182.11033,34.874022 c -3.32238,-0.39872 -3.36136,-0.423851 -3.85141,-2.58333 -1.00642,-4.434972 -0.0281,-9.65218 2.61474,-15.11116 1.36368,-2.81674 2.93616,-4.86591 5.20856,-7.02447 2.24956,-2.1368597 4.51291,-3.4917097 7.51427,-4.4980597 1.15505,-0.38729 2.18756,-0.84042 2.29447,-1.0069603 0.32363,-0.50411 0.22776,-1.1398 -0.26053,-1.72756 l -0.46302,-0.55735 -2.51354,0.52456 c -2.95729,0.61716 -5.54098,0.66576 -7.97439,0.14998 -8.49599,-1.80078 -13.271,-9.88324 -10.68157,-18.08025 1.95692,-6.19474 7.0443,-9.84864 13.71242,-9.84864 5.04413,0 9.3408,2.08121 11.86205,5.74573 1.0005,1.45417 1.45227,2.76322 1.78889,5.1834 0.73342,5.27312 -1.8409,10.11491 -4.73959,8.91423 -1.40952,-0.58384 -1.58656,-1.45083 -1.58656,-7.76935 0,-5.36996 -0.0301,-5.72149 -0.51177,-5.97928 -1.2668,-0.67797 -2.92782,-0.0721 -2.92782,1.06792 0,0.64781 -0.31231,0.65368 -0.71219,0.0134 -1.01962,-1.63268 -5.37112,-2.17847 -7.88676,-0.9892 -1.6142,0.76311 -2.51191,1.69433 -3.47313,3.60276 -0.60029,1.19182 -0.753,1.89593 -0.84374,3.89024 -0.12763,2.80501 0.27178,4.27554 1.6933,6.23437 2.43572,3.35637 8.19896,3.72028 10.79967,0.68194 l 0.91285,-1.06645 0.40696,0.78697 c 0.95582,1.84837 3.15353,2.87394 5.61772,2.62153 4.14447,-0.42451 6.72103,-4.37017 6.71058,-10.27638 -0.008,-4.44499 -1.30024,-7.62173 -4.35367,-10.70156 -3.46048,-3.49041 -8.01355,-5.07824 -13.75268,-4.79609 -4.86164,0.23902 -8.25663,1.69641 -11.5368,4.95251 -3.39303,3.36812 -4.83071,6.8873 -5.27869,12.92136 -0.6636,8.93814998 -3.11291,15.6282603 -8.28738,22.63642 -1.6372,2.21737 -5.24288,5.9818 -5.72955,5.9818 -0.65519,0 -3.4539,-5.30132 -4.86735,-9.2197297 -1.39482,-3.86677 -1.8553,-6.8747103 -1.86945,-12.2115203 -0.0108,-4.0833 0.0871,-5.38951 0.5906,-7.87888 2.86427,-14.16094 13.71578,-25.46154 28.00955,-29.16874 25.24852,-6.548392 48.62021,12.871328 47.90112,37.97366 -0.14433,5.03885 -0.41658,6.7224603 -1.76354,10.9058703 -3.65763,11.3599497 -13.01068,20.5592397 -24.54679,24.1432297 -1.42571,0.44294 -3.60177,0.98466 -4.83569,1.20382 -2.86626,0.5091 -9.53139,0.70237 -12.39014,0.35928 z m 2.31444,-40.77977 c -2.1532,-1.42671 -2.84704,-5.12693 -1.48384,-7.91321 1.94735,-3.98023 7.07248,-3.28863 8.12442,1.09633 0.67591,2.81753 -0.45005,6.01926 -2.45068,6.96862 -1.34083,0.63627 -3.09661,0.57268 -4.1899,-0.15174 z"
           id="path1-7"
           sodipodi:nodetypes="ssssssscsssssssssssssssscsscsssssssscssssssssssss" /></g></g></g><g
     inkscape:label="Layer 1"
     inkscape:groupmode="layer"
     id="layer1"
     transform="translate(39.773356,52.61125)" /></svg>
